# xmcd
#
# Track frame offsets: 
#        150
#        22397
#        39612
#        58853
#        79717
#        97575
#        129512
#        149825
#        166222
#        191319
#        206869
#        223862
#        244817
#        276762
#        292722
#        304977
#
# Disc length: 4220 seconds
#
# Revision: 0
# Processed by: cddbd v1.4PL0 Copyright (c) Steve Scherf et al.
# Submitted via: ExactAudioCopy v0.90b4
#
DISCID=f2107a10
DTITLE=Van Morrison - Sometimes It Reaches Up To The Moon, disc 1
DYEAR=1983
DGENRE=Celtic
TTITLE0=Share Your Dreams
TTITLE1=Hungry For Your Love
TTITLE2=High Place
TTITLE3=Inarticulate Speech Of The Heart # 2 > Dweller On The Threshol
TTITLE3=d
TTITLE4=Bright Side Of The Road
TTITLE5=It's All In The Game
TTITLE6=She Gives Me Religion
TTITLE7=Beautiful Vision
TTITLE8=Vanlose Stairway
TTITLE9=Celtic Swing
TTITLE10=Northern Muse (Solid Ground)
TTITLE11=Cleaning Windows
TTITLE12=Haunts Of Ancient Peace
TTITLE13=Higher Than The World
TTITLE14=Celtic Ray
TTITLE15=Aryan Mist
EXTD=
EXTT0=
EXTT1=
EXTT2=
EXTT3=
EXTT4=
EXTT5=
EXTT6=
EXTT7=
EXTT8=
EXTT9=
EXTT10=
EXTT11=
EXTT12=
EXTT13=
EXTT14=
EXTT15=
PLAYORDER=
